<svg id="Layer_1" data-name="Layer 1" xmlns="http://www.w3.org/2000/svg" width="432" height="683.29" viewBox="0 0 432 683.29">
  <title>context-diagram</title>
  <rect y="127.12" width="432" height="556.17" style="fill: #7fffe7"/>
  <rect x="138.26" y="40.14" width="150" height="100" style="fill: #fff;stroke: #000;stroke-miterlimit: 10"/>
  <rect x="248.26" y="169.22" width="150" height="100" style="fill: #fff;stroke: #000;stroke-miterlimit: 10"/>
  <rect x="30.96" y="169.22" width="150" height="100" style="fill: #fff;stroke: #000;stroke-miterlimit: 10"/>
  <rect x="248.26" y="292.49" width="150" height="100" style="fill: #fff;stroke: #000;stroke-miterlimit: 10"/>
  <rect x="248.26" y="415.75" width="150" height="100" style="fill: #fff;stroke: #000;stroke-miterlimit: 10"/>
  <rect x="248.26" y="536.88" width="150" height="100" style="fill: #fff;stroke: #000;stroke-miterlimit: 10"/>
  <g>
    <path d="M182.89,102.81a7.93,7.93,0,0,1-3.16-1.53,2.94,2.94,0,0,1-1-2.25,3.08,3.08,0,0,1,1.21-2.5,4.78,4.78,0,0,1,3.14-1,5.24,5.24,0,0,1,2.35.51,3.86,3.86,0,0,1,1.6,1.41,3.58,3.58,0,0,1,.57,2h-1.7a2.34,2.34,0,0,0-.74-1.83,3,3,0,0,0-2.08-.67,3.14,3.14,0,0,0-2,.55,1.86,1.86,0,0,0-.7,1.53,1.65,1.65,0,0,0,.67,1.33,6.49,6.49,0,0,0,2.25,1,10.43,10.43,0,0,1,2.5,1,3.81,3.81,0,0,1,1.34,1.26,3.19,3.19,0,0,1,.43,1.69,3,3,0,0,1-1.21,2.5,5.2,5.2,0,0,1-3.24.93,6.2,6.2,0,0,1-2.47-.5A4.19,4.19,0,0,1,179,106.8a3.38,3.38,0,0,1-.62-2H180a2.19,2.19,0,0,0,.86,1.83,3.59,3.59,0,0,0,2.29.67,3.31,3.31,0,0,0,2-.54,1.78,1.78,0,0,0,.72-1.49,1.72,1.72,0,0,0-.66-1.45A7.6,7.6,0,0,0,182.89,102.81Z" transform="translate(0 -2.96)"/>
    <path d="M198.64,97.1h-4.12v11.42h-1.68V97.1h-4.1V95.72h9.9Z" transform="translate(0 -2.96)"/>
    <path d="M206.91,105.17h-5.37l-1.2,3.35H198.6l4.89-12.8H205l4.9,12.8h-1.73Zm-4.86-1.38h4.36l-2.18-6Z" transform="translate(0 -2.96)"/>
    <path d="M219.29,97.1h-4.11v11.42H213.5V97.1h-4.11V95.72h9.9Z" transform="translate(0 -2.96)"/>
    <path d="M228.42,102.6h-5.54v4.54h6.44v1.38h-8.13V95.72h8V97.1h-6.35v4.12h5.54Z" transform="translate(0 -2.96)"/>
    <path d="M240.05,100.62l3.07-4.9h2l-4,6.34,4.14,6.46h-2l-3.15-5-3.16,5h-2l4.15-6.46-4-6.34h2Z" transform="translate(0 -2.96)"/>
    <path d="M169.18,124.46h-5.37v5.66h-1.68v-12.8h7.92v1.38h-6.24v4.38h5.37Z" transform="translate(0 -2.96)"/>
    <path d="M181.08,117.32V126a4.06,4.06,0,0,1-1.13,3,4.59,4.59,0,0,1-3.07,1.29l-.45,0a4.79,4.79,0,0,1-3.34-1.13,4,4,0,0,1-1.27-3.12v-8.72h1.67V126a2.66,2.66,0,0,0,2.94,2.92,2.65,2.65,0,0,0,3-2.92v-8.67Z" transform="translate(0 -2.96)"/>
    <path d="M193.58,130.12h-1.69l-6.45-9.87v9.87h-1.69v-12.8h1.69l6.46,9.9v-9.9h1.68Z" transform="translate(0 -2.96)"/>
    <path d="M206,126.06a4.73,4.73,0,0,1-1.5,3.13,4.92,4.92,0,0,1-3.35,1.1,4.51,4.51,0,0,1-3.63-1.62,6.57,6.57,0,0,1-1.37-4.35v-1.24a7.2,7.2,0,0,1,.64-3.13,4.66,4.66,0,0,1,1.8-2.08,5.06,5.06,0,0,1,2.71-.73,4.62,4.62,0,0,1,3.27,1.14,4.75,4.75,0,0,1,1.43,3.15H204.3a3.7,3.7,0,0,0-1-2.22,2.87,2.87,0,0,0-2.05-.69,3,3,0,0,0-2.54,1.2,5.5,5.5,0,0,0-.91,3.4v1.24a5.66,5.66,0,0,0,.87,3.32,2.81,2.81,0,0,0,2.43,1.23,3.22,3.22,0,0,0,2.16-.64,3.54,3.54,0,0,0,1-2.21Z" transform="translate(0 -2.96)"/>
    <path d="M216.88,118.7h-4.11v11.42h-1.68V118.7H207v-1.38h9.89Z" transform="translate(0 -2.96)"/>
    <path d="M220.59,130.12H218.9v-12.8h1.69Z" transform="translate(0 -2.96)"/>
    <path d="M233.52,124.13a7.93,7.93,0,0,1-.63,3.28,4.78,4.78,0,0,1-1.8,2.14,4.84,4.84,0,0,1-2.7.74,4.78,4.78,0,0,1-4.5-2.86,7.58,7.58,0,0,1-.66-3.18v-.93a7.77,7.77,0,0,1,.64-3.26,4.9,4.9,0,0,1,1.81-2.16,4.83,4.83,0,0,1,2.69-.76,4.93,4.93,0,0,1,2.71.75,4.82,4.82,0,0,1,1.81,2.15,8,8,0,0,1,.63,3.28Zm-1.68-.83a5.73,5.73,0,0,0-.91-3.49,3,3,0,0,0-2.56-1.22,3,3,0,0,0-2.52,1.22,5.59,5.59,0,0,0-.94,3.38v.94a5.81,5.81,0,0,0,.92,3.47,3.26,3.26,0,0,0,5.09.07,5.73,5.73,0,0,0,.92-3.42Z" transform="translate(0 -2.96)"/>
    <path d="M245.89,130.12h-1.7l-6.44-9.87v9.87h-1.7v-12.8h1.7l6.46,9.9v-9.9h1.68Z" transform="translate(0 -2.96)"/>
    <path d="M257.24,123.74l3.34-6.42h1.92l-4.42,8v4.78H256.4v-4.78l-4.41-8h1.93Z" transform="translate(0 -2.96)"/>
  </g>
  <g>
    <path d="M295.48,596v5h-1.69V588.2h4.72a4.75,4.75,0,0,1,3.29,1.07,4.06,4.06,0,0,1,0,5.71,5,5,0,0,1-3.34,1Zm0-1.38h3a3,3,0,0,0,2.07-.63,2.32,2.32,0,0,0,.73-1.85,2.39,2.39,0,0,0-.73-1.83,2.82,2.82,0,0,0-2-.71h-3.13Z" transform="translate(0 -2.96)"/>
    <path d="M309.84,595.82h-3V601h-1.69V588.2h4.23a5,5,0,0,1,3.33,1,3.54,3.54,0,0,1,1.17,2.87,3.45,3.45,0,0,1-.65,2.08,3.91,3.91,0,0,1-1.8,1.33l3,5.43v.1h-1.81Zm-3-1.38h2.6a3,3,0,0,0,2-.65,2.24,2.24,0,0,0,.74-1.75,2.32,2.32,0,0,0-.71-1.82,3,3,0,0,0-2-.64h-2.59Z" transform="translate(0 -2.96)"/>
    <path d="M326.07,595a7.93,7.93,0,0,1-.63,3.28,4.76,4.76,0,0,1-1.79,2.14,5,5,0,0,1-2.71.74,4.93,4.93,0,0,1-2.68-.74,5,5,0,0,1-1.82-2.12,7.6,7.6,0,0,1-.66-3.19v-.92a7.77,7.77,0,0,1,.64-3.26,5,5,0,0,1,1.82-2.17,4.85,4.85,0,0,1,2.68-.75,5,5,0,0,1,2.71.74,4.78,4.78,0,0,1,1.81,2.16,8,8,0,0,1,.63,3.28Zm-1.68-.83a5.73,5.73,0,0,0-.91-3.49,3.25,3.25,0,0,0-5.08,0,5.65,5.65,0,0,0-.94,3.38V595a5.74,5.74,0,0,0,.93,3.47,3.25,3.25,0,0,0,5.08.07,5.68,5.68,0,0,0,.92-3.42Z" transform="translate(0 -2.96)"/>
    <path d="M330.29,596v5H328.6V588.2h4.72a4.8,4.8,0,0,1,3.3,1.07,3.64,3.64,0,0,1,1.19,2.84,3.58,3.58,0,0,1-1.17,2.87,4.94,4.94,0,0,1-3.33,1Zm0-1.38h3a3.06,3.06,0,0,0,2.08-.63,2.35,2.35,0,0,0,.72-1.85,2.42,2.42,0,0,0-.72-1.83,2.84,2.84,0,0,0-2-.71h-3.13Z" transform="translate(0 -2.96)"/>
    <path d="M348.59,593.1l3.07-4.9h2l-4,6.34,4.14,6.45h-2l-3.15-5-3.16,5h-2l4.15-6.45-4.05-6.34h2Z" transform="translate(0 -2.96)"/>
    <path d="M280.79,616.94h-5.37v5.65h-1.69V609.8h7.93v1.38h-6.24v4.38h5.37Z" transform="translate(0 -2.96)"/>
    <path d="M292.69,609.8v8.7a4,4,0,0,1-1.14,3,4.54,4.54,0,0,1-3.06,1.29l-.45,0a4.83,4.83,0,0,1-3.35-1.13,4.06,4.06,0,0,1-1.26-3.12V609.8h1.67v8.66a2.92,2.92,0,0,0,.76,2.16,3,3,0,0,0,5.14-2.15V609.8Z" transform="translate(0 -2.96)"/>
    <path d="M305.19,622.59h-1.7l-6.44-9.86v9.86h-1.69V609.8h1.69l6.46,9.9v-9.9h1.68Z" transform="translate(0 -2.96)"/>
    <path d="M317.6,618.53a4.73,4.73,0,0,1-1.5,3.14,4.93,4.93,0,0,1-3.35,1.1,4.52,4.52,0,0,1-3.64-1.63,6.53,6.53,0,0,1-1.36-4.35v-1.23a7.17,7.17,0,0,1,.64-3.13,4.66,4.66,0,0,1,1.8-2.08,5,5,0,0,1,2.71-.73,4.62,4.62,0,0,1,3.27,1.14,4.75,4.75,0,0,1,1.43,3.15h-1.7a3.64,3.64,0,0,0-.95-2.22,2.87,2.87,0,0,0-2.05-.69,3,3,0,0,0-2.54,1.2,5.5,5.5,0,0,0-.92,3.4v1.24a5.66,5.66,0,0,0,.87,3.32,2.83,2.83,0,0,0,2.44,1.23,3.22,3.22,0,0,0,2.16-.64,3.49,3.49,0,0,0,1-2.22Z" transform="translate(0 -2.96)"/>
    <path d="M328.49,611.18h-4.11v11.41H322.7V611.18h-4.11V609.8h9.9Z" transform="translate(0 -2.96)"/>
    <path d="M332.2,622.59h-1.69V609.8h1.69Z" transform="translate(0 -2.96)"/>
    <path d="M345.13,616.61a7.77,7.77,0,0,1-.64,3.28A4.7,4.7,0,0,1,342.7,622a4.93,4.93,0,0,1-7.2-2.12,7.6,7.6,0,0,1-.66-3.19v-.92a7.77,7.77,0,0,1,.64-3.26,4.93,4.93,0,0,1,1.81-2.17,4.88,4.88,0,0,1,2.69-.75,5,5,0,0,1,2.71.74,4.82,4.82,0,0,1,1.8,2.16,7.8,7.8,0,0,1,.64,3.28Zm-1.68-.83a5.8,5.8,0,0,0-.91-3.49,3,3,0,0,0-2.56-1.22,3,3,0,0,0-2.52,1.22,5.65,5.65,0,0,0-.95,3.38v.94a5.74,5.74,0,0,0,.93,3.47,3.26,3.26,0,0,0,5.09.07,5.82,5.82,0,0,0,.92-3.42Z" transform="translate(0 -2.96)"/>
    <path d="M357.49,622.59H355.8l-6.44-9.86v9.86h-1.7V609.8h1.7l6.46,9.9v-9.9h1.67Z" transform="translate(0 -2.96)"/>
    <path d="M368.85,616.22l3.34-6.42h1.92l-4.42,8v4.77H368v-4.77l-4.42-8h1.94Z" transform="translate(0 -2.96)"/>
  </g>
  <g>
    <path d="M180.62,13.73a6.88,6.88,0,0,1-.53,2.12,5.06,5.06,0,0,1-1.2,1.68A5.55,5.55,0,0,1,177,18.64a7.56,7.56,0,0,1-2.54.4,6.31,6.31,0,0,1-2.61-.53,5.46,5.46,0,0,1-2-1.48,6.74,6.74,0,0,1-1.27-2.32,10.07,10.07,0,0,1-.44-3.07V10.38a9.46,9.46,0,0,1,.46-3.06A7,7,0,0,1,169.93,5a5.78,5.78,0,0,1,2-1.49A6.51,6.51,0,0,1,174.62,3a7,7,0,0,1,2.47.41,5.46,5.46,0,0,1,1.82,1.11,5.11,5.11,0,0,1,1.17,1.71,7.44,7.44,0,0,1,.54,2.16h-2.7a6.3,6.3,0,0,0-.3-1.34,2.87,2.87,0,0,0-.6-1,2.44,2.44,0,0,0-1-.63,4.31,4.31,0,0,0-1.43-.21,3.45,3.45,0,0,0-1.62.35,3,3,0,0,0-1.15,1,4.81,4.81,0,0,0-.7,1.62,9.81,9.81,0,0,0-.23,2.21v1.28a9.92,9.92,0,0,0,.21,2.13,4.76,4.76,0,0,0,.63,1.64,3.13,3.13,0,0,0,1.11,1.06,3.29,3.29,0,0,0,1.62.37,4.63,4.63,0,0,0,1.49-.2,2.62,2.62,0,0,0,1-.6,2.74,2.74,0,0,0,.62-1,6,6,0,0,0,.32-1.33Z" transform="translate(0 -2.96)" style="fill: #7fffe7"/>
    <path d="M195.53,11.41a10.15,10.15,0,0,1-.46,3.19,7,7,0,0,1-1.32,2.4,5.84,5.84,0,0,1-2,1.51,6.84,6.84,0,0,1-5.28,0A5.88,5.88,0,0,1,184.38,17,6.91,6.91,0,0,1,183,14.6a10.14,10.14,0,0,1-.47-3.19v-.8a10.25,10.25,0,0,1,.47-3.2A7.16,7.16,0,0,1,184.37,5a5.75,5.75,0,0,1,2-1.52,6.84,6.84,0,0,1,5.28,0A5.61,5.61,0,0,1,193.74,5a7.14,7.14,0,0,1,1.33,2.4,10.26,10.26,0,0,1,.46,3.2Zm-2.71-.82a9.42,9.42,0,0,0-.26-2.31,5,5,0,0,0-.73-1.68,3.16,3.16,0,0,0-1.19-1,3.58,3.58,0,0,0-1.6-.35,3.44,3.44,0,0,0-1.56.35,3.16,3.16,0,0,0-1.19,1,4.82,4.82,0,0,0-.75,1.68,8.93,8.93,0,0,0-.27,2.31v.82a9,9,0,0,0,.27,2.32,5.06,5.06,0,0,0,.75,1.69,3.19,3.19,0,0,0,1.2,1,3.56,3.56,0,0,0,1.58.35,3.2,3.2,0,0,0,2.77-1.37,6.93,6.93,0,0,0,1-4Z" transform="translate(0 -2.96)" style="fill: #7fffe7"/>
    <path d="M210.65,18.82h-2.72l-7-11.1v11.1h-2.72V3.18H201l7,11.14V3.18h2.7Z" transform="translate(0 -2.96)" style="fill: #7fffe7"/>
    <path d="M224.85,5.37H220V18.82h-2.69V5.37h-4.84V3.18h12.41Z" transform="translate(0 -2.96)" style="fill: #7fffe7"/>
    <path d="M236,11.84h-6.42v4.81h7.51v2.17H226.9V3.18h10.15V5.37h-7.43V9.69H236Z" transform="translate(0 -2.96)" style="fill: #7fffe7"/>
    <path d="M244.72,8.83,248,3.18h3.14l-4.73,7.76,4.83,7.88h-3.17l-3.36-5.74-3.37,5.74h-3.16L243,10.94,238.3,3.18h3.13Z" transform="translate(0 -2.96)" style="fill: #7fffe7"/>
    <path d="M264.56,5.37h-4.87V18.82H257V5.37h-4.83V3.18h12.4Z" transform="translate(0 -2.96)" style="fill: #7fffe7"/>
  </g>
  <g>
    <path d="M159.51,65.67l5,2.23-.29,1.64-6.41-3.33.22-1.28,7.57-3.33-.31,1.81Z" transform="translate(0 -2.96)"/>
    <path d="M169.2,66.29l-.87,5h-1.65l2.22-12.8h4.27a4.17,4.17,0,0,1,3.05,1.05,3.29,3.29,0,0,1,.93,2.79,4,4,0,0,1-1.47,2.89,5.26,5.26,0,0,1-3.44,1.06Zm.24-1.38h2.85a3.46,3.46,0,0,0,2.2-.68,2.69,2.69,0,0,0,1-1.88,2.07,2.07,0,0,0-.45-1.75,2.23,2.23,0,0,0-1.71-.71h-3Z" transform="translate(0 -2.96)"/>
    <path d="M183.28,66.13h-2.95l-.9,5.17h-1.66L180,58.5h3.85a4.32,4.32,0,0,1,3.07,1,3.21,3.21,0,0,1,.89,2.76,3.69,3.69,0,0,1-.88,2.12,4.67,4.67,0,0,1-2.07,1.38l2,5.39v.12h-1.76Zm-2.71-1.39H183a3.4,3.4,0,0,0,2.14-.67,2.63,2.63,0,0,0,1-1.8,2.09,2.09,0,0,0-.44-1.72A2.32,2.32,0,0,0,184,59.9h-2.56Z" transform="translate(0 -2.96)"/>
    <path d="M193.31,71.47a4,4,0,0,1-2.12-.58,3.82,3.82,0,0,1-1.42-1.66,6.09,6.09,0,0,1-.57-2.46,11.56,11.56,0,0,1,.23-2.63,9.09,9.09,0,0,1,1-2.82,6.32,6.32,0,0,1,1.73-2,4.94,4.94,0,0,1,3.14-1,3.78,3.78,0,0,1,3,1.29A5.44,5.44,0,0,1,199.43,63a12.81,12.81,0,0,1-.19,2.34,10,10,0,0,1-.8,2.65,6.64,6.64,0,0,1-1.47,2A5,5,0,0,1,193.31,71.47Zm4.49-8a4.38,4.38,0,0,0-.61-2.68,2.29,2.29,0,0,0-2-1,3.32,3.32,0,0,0-2.1.63,4.75,4.75,0,0,0-1.52,2,10.06,10.06,0,0,0-.75,3.37l0,.57a4.48,4.48,0,0,0,.62,2.7,2.27,2.27,0,0,0,1.94,1,3.37,3.37,0,0,0,2.75-1.2,6.8,6.8,0,0,0,1.46-3.49A15.69,15.69,0,0,0,197.8,63.44Z" transform="translate(0 -2.96)"/>
    <path d="M205,69l5.2-10.54h1.86l-6.61,12.8H204l-2.59-12.8h1.73Z" transform="translate(0 -2.96)"/>
    <path d="M213.48,71.3h-1.64l2.22-12.8h1.64Z" transform="translate(0 -2.96)"/>
    <path d="M216.55,71.3l2.22-12.8h3.32a4.64,4.64,0,0,1,2.7.78,4.33,4.33,0,0,1,1.62,2.16,6.74,6.74,0,0,1,.29,3.08l-.09.64a7.22,7.22,0,0,1-2.17,4.46A6.31,6.31,0,0,1,220,71.3Zm3.63-11.42-1.74,10h1.62a4.56,4.56,0,0,0,3.16-1.16,5.5,5.5,0,0,0,1.69-3.18,10.78,10.78,0,0,0,.21-2.75,3.38,3.38,0,0,0-.91-2.14,2.92,2.92,0,0,0-2.07-.8Z" transform="translate(0 -2.96)"/>
    <path d="M236.15,65.38h-5.38L230,69.92h6.26L236,71.3h-7.9l2.22-12.8h7.81l-.24,1.38h-6.16L231,64h5.37Z" transform="translate(0 -2.96)"/>
    <path d="M243.6,66.13h-2.95l-.9,5.17h-1.66l2.22-12.8h3.85a4.33,4.33,0,0,1,3.07,1,3.21,3.21,0,0,1,.89,2.76,3.69,3.69,0,0,1-.88,2.12,4.73,4.73,0,0,1-2.07,1.38l2,5.39v.12h-1.76Zm-2.72-1.39h2.43a3.4,3.4,0,0,0,2.14-.67,2.63,2.63,0,0,0,1-1.8,2.09,2.09,0,0,0-.44-1.72,2.32,2.32,0,0,0-1.74-.66h-2.56Z" transform="translate(0 -2.96)"/>
    <path d="M253.28,72.4h-1.44l7.59-13.9h1.43Z" transform="translate(0 -2.96)"/>
    <path d="M267,65.55l-5.26-2.28.29-1.6L268.73,65l-.23,1.27-7.88,3.34.32-1.77Z" transform="translate(0 -2.96)"/>
  </g>
  <g>
    <path d="M263.58,560.5l5,2.22-.29,1.65L261.84,561l.23-1.29,7.56-3.32-.31,1.8Z" transform="translate(0 -2.96)"/>
    <path d="M280.51,562.05a5.12,5.12,0,0,1-1.8,3.14,5,5,0,0,1-3.42,1.11,4,4,0,0,1-2.08-.58,3.77,3.77,0,0,1-1.38-1.61,5.9,5.9,0,0,1-.54-2.33,6.49,6.49,0,0,1,.06-1.4l.15-1.06a8,8,0,0,1,2-4.55,5.13,5.13,0,0,1,3.93-1.62,3.81,3.81,0,0,1,2.85,1.17,4.57,4.57,0,0,1,1.12,3.13h-1.64c-.08-1.79-.78-2.76-2.11-2.9l-.29,0a3.4,3.4,0,0,0-2.78,1.24,6.6,6.6,0,0,0-1.43,3.49l-.2,1.33-.05.77a4.36,4.36,0,0,0,.58,2.57,2.15,2.15,0,0,0,1.86,1,3.29,3.29,0,0,0,2.22-.64,4.32,4.32,0,0,0,1.33-2.21Z" transform="translate(0 -2.96)"/>
    <path d="M286.9,566.3a4.08,4.08,0,0,1-2.13-.59,3.85,3.85,0,0,1-1.42-1.65,6.44,6.44,0,0,1-.57-2.46A12.21,12.21,0,0,1,283,559a9.08,9.08,0,0,1,1-2.82,6.34,6.34,0,0,1,1.73-2,5,5,0,0,1,3.15-1,3.8,3.8,0,0,1,3,1.3,5.38,5.38,0,0,1,1.16,3.41,12,12,0,0,1-.19,2.35,9.43,9.43,0,0,1-.8,2.64,6.5,6.5,0,0,1-1.46,2A5,5,0,0,1,286.9,566.3Zm4.49-8a4.48,4.48,0,0,0-.61-2.69,2.34,2.34,0,0,0-2-1,3.31,3.31,0,0,0-2.1.64,4.69,4.69,0,0,0-1.52,2,10.24,10.24,0,0,0-.76,3.37l0,.57a4.48,4.48,0,0,0,.61,2.7,2.32,2.32,0,0,0,1.94,1,3.39,3.39,0,0,0,2.76-1.2,6.83,6.83,0,0,0,1.45-3.5A15.78,15.78,0,0,0,291.39,558.27Z" transform="translate(0 -2.96)"/>
    <path d="M303.85,566.12h-1.6l-4.57-9.93L296,566.12H294.3l2.22-12.79h1.6l4.58,10,1.73-10h1.64Z" transform="translate(0 -2.96)"/>
    <path d="M314,562.83c.13-.94-.36-1.62-1.46-2.06l-1.52-.55-.51-.22q-2.56-1.17-2.4-3.29a3.44,3.44,0,0,1,.73-1.88,4.22,4.22,0,0,1,1.7-1.26,5.37,5.37,0,0,1,2.25-.42,4.47,4.47,0,0,1,2.07.52,3.36,3.36,0,0,1,1.39,1.38,3.67,3.67,0,0,1,.42,2H315a2.28,2.28,0,0,0-.53-1.83,2.36,2.36,0,0,0-1.76-.67,3.27,3.27,0,0,0-2,.57,2.16,2.16,0,0,0-.93,1.58c-.12.88.42,1.54,1.61,2l1.31.47.66.28q2.47,1.14,2.29,3.39a3.4,3.4,0,0,1-.73,1.87,4.1,4.1,0,0,1-1.72,1.22,6,6,0,0,1-2.33.4,5,5,0,0,1-2.2-.51,3.6,3.6,0,0,1-1.52-1.39,3.41,3.41,0,0,1-.45-2h1.65a2.14,2.14,0,0,0,.62,1.81,2.76,2.76,0,0,0,2,.69,3.54,3.54,0,0,0,2.1-.55A2.18,2.18,0,0,0,314,562.83Z" transform="translate(0 -2.96)"/>
    <path d="M328.29,553.33,326.82,562a4.93,4.93,0,0,1-1.73,3.18,5.06,5.06,0,0,1-3.43,1.15,4.5,4.5,0,0,1-2.19-.57,3.19,3.19,0,0,1-1.36-1.52,4.07,4.07,0,0,1-.29-2.23l1.47-8.66h1.63L319.45,562a2.76,2.76,0,0,0,.46,2.11,2.24,2.24,0,0,0,1.83.81,3.18,3.18,0,0,0,2.26-.73,3.44,3.44,0,0,0,1.15-2.18l1.48-8.69Z" transform="translate(0 -2.96)"/>
    <path d="M333,553.33l2.25,10.42,5.87-10.42h2.17l-2.23,12.79h-1.64l.88-5.06,1-5.15-5.81,10.21h-1.26L332,555.71l-.79,5.52-.85,4.89h-1.65l2.22-12.79Z" transform="translate(0 -2.96)"/>
    <path d="M352.08,560.21H346.7l-.79,4.53h6.25l-.24,1.38H344l2.22-12.79h7.81l-.24,1.38h-6.16l-.72,4.12h5.38Z" transform="translate(0 -2.96)"/>
    <path d="M359.53,561h-2.95l-.9,5.16H354l2.22-12.79h3.85a4.25,4.25,0,0,1,3.07,1,3.19,3.19,0,0,1,.89,2.75,3.66,3.66,0,0,1-.88,2.12,4.78,4.78,0,0,1-2.07,1.38l2,5.4v.11h-1.76Zm-2.72-1.39h2.43a3.37,3.37,0,0,0,2.13-.68,2.59,2.59,0,0,0,1-1.79,2,2,0,0,0-.44-1.73,2.35,2.35,0,0,0-1.74-.65h-2.55Z" transform="translate(0 -2.96)"/>
    <path d="M369.21,567.22h-1.45l7.6-13.89h1.43Z" transform="translate(0 -2.96)"/>
    <path d="M382.91,560.38l-5.26-2.28.29-1.6,6.72,3.33-.23,1.28-7.88,3.34.32-1.77Z" transform="translate(0 -2.96)"/>
  </g>
  <g>
    <path d="M83.18,456.1a4.81,4.81,0,0,1-2.91,1.22,3.22,3.22,0,0,1-2.61-1,4.21,4.21,0,0,1-1-2.77v-.9a2.27,2.27,0,0,0-.54-1.55,1.94,1.94,0,0,0-2.62-.13l-.34.23L71.92,450a4.84,4.84,0,0,1,2.89-1.16,3.29,3.29,0,0,1,2.58,1.05,3.92,3.92,0,0,1,1,2.45l.05,1.31a2.14,2.14,0,0,0,.53,1.46,1.82,1.82,0,0,0,1.38.55,3.13,3.13,0,0,0,1.73-.66Z" transform="translate(0 -2.96)"/>
    <path d="M90.56,468.25a6.3,6.3,0,0,1-4.28,1.17,6.17,6.17,0,0,1-3.91-2,4.89,4.89,0,0,1-1.29-2.3,4.52,4.52,0,0,1,.2-2.58,7.17,7.17,0,0,1,1.54-2.48,8.66,8.66,0,0,1,1.26-1.17l1-.78a9.77,9.77,0,0,1,5.69-2.18,6.24,6.24,0,0,1,4.79,2,4.69,4.69,0,0,1,1.46,3.48,5.65,5.65,0,0,1-1.74,3.67l-1.42-1.42q2.22-2.43.68-4.33l-.23-.27a4.2,4.2,0,0,0-3.47-1.33,8.21,8.21,0,0,0-4.26,1.78l-1.31,1-.72.62a5.34,5.34,0,0,0-1.72,2.72,2.63,2.63,0,0,0,.76,2.47,4,4,0,0,0,2.46,1.36,5.24,5.24,0,0,0,3.06-.76Z" transform="translate(0 -2.96)"/>
    <path d="M92.4,477.45a5,5,0,0,1-1.32-2.34,4.63,4.63,0,0,1,.2-2.66,7.72,7.72,0,0,1,1.63-2.62,14.56,14.56,0,0,1,2.48-2.07,11.31,11.31,0,0,1,3.3-1.57,7.88,7.88,0,0,1,3.24-.24,6.11,6.11,0,0,1,3.57,1.87,4.63,4.63,0,0,1,1.43,3.67,6.52,6.52,0,0,1-2,3.95,14.65,14.65,0,0,1-2.19,1.87,11.77,11.77,0,0,1-3,1.59,7.82,7.82,0,0,1-3,.51A6.15,6.15,0,0,1,92.4,477.45Zm10.83-3.06a5.48,5.48,0,0,0,1.79-2.85,2.8,2.8,0,0,0-.84-2.54,4.07,4.07,0,0,0-2.36-1.28,5.84,5.84,0,0,0-3,.42,12.71,12.71,0,0,0-3.56,2.26l-.51.47a5.39,5.39,0,0,0-1.8,2.86,2.81,2.81,0,0,0,.8,2.56,4.13,4.13,0,0,0,3.42,1.34,8.28,8.28,0,0,0,4.28-1.76A21,21,0,0,0,103.23,474.39Z" transform="translate(0 -2.96)"/>
    <path d="M107.21,492l-1.39-1.38L110.46,478l-10.07,7.1L99,483.69l13-9.13,1.38,1.38-4.66,12.58,10.12-7.13,1.42,1.42Z" transform="translate(0 -2.96)"/>
    <path d="M128.56,493.57l-3.44-3.44-11.58,8.16-1.42-1.43,11.58-8.15-3.44-3.44,1.4-1,8.3,8.3Z" transform="translate(0 -2.96)"/>
    <path d="M130.72,505.23l-4.65-4.64-4.61,3.23,5.41,5.41-1.4,1-6.83-6.83,13-9.14,6.75,6.76-1.4,1-5.33-5.33-4.18,3,4.65,4.65Z" transform="translate(0 -2.96)"/>
    <path d="M138.73,509.82l7.46-1,1.76,1.76-9.86,1.25-2.93,8.08-1.6-1.6L135.9,512l-7.63,1-1.76-1.76,10-1.24,2.91-7.93,1.58,1.58Z" transform="translate(0 -2.96)"/>
    <path d="M155.82,520.83l-3.44-3.44-11.58,8.16-1.42-1.42L151,516l-3.44-3.44,1.4-1,8.3,8.3Z" transform="translate(0 -2.96)"/>
    <path d="M160.82,533.74a4.87,4.87,0,0,1-2.91,1.22,3.24,3.24,0,0,1-2.61-1,4.06,4.06,0,0,1-1-2.76l0-.9a2.22,2.22,0,0,0-.54-1.56,1.94,1.94,0,0,0-2.61-.12l-.34.22-1.21-1.16a4.7,4.7,0,0,1,2.89-1.16,3.19,3.19,0,0,1,2.57,1.05,3.85,3.85,0,0,1,1,2.45l0,1.31a2.24,2.24,0,0,0,.53,1.46,1.85,1.85,0,0,0,1.39.55,3.29,3.29,0,0,0,1.73-.66Z" transform="translate(0 -2.96)"/>
  </g>
  <g>
    <path d="M155.31,65.21c-34.37,0-62.85,25.6-68.41,59.27" transform="translate(0 -2.96)" style="fill: none;stroke: #2a84ff;stroke-miterlimit: 10;stroke-width: 2px"/>
    <path d="M85.92,136.52c-1.59-5.85-4.54-13.19-7.94-17.89l9.17,4.29,9.78-2.57C92.74,124.36,88.52,131.05,85.92,136.52Z" transform="translate(0 -2.96)" style="fill: #2a84ff"/>
  </g>
  <rect x="30.96" y="292.49" width="150" height="100" style="fill: #fff;stroke: #000;stroke-miterlimit: 10"/>
  <g>
    <path d="M78.87,350.35v5H77.18V342.57H81.9a4.71,4.71,0,0,1,3.29,1.07,4.06,4.06,0,0,1,0,5.71,5,5,0,0,1-3.34,1Zm0-1.38h3a3.08,3.08,0,0,0,2.08-.63,2.35,2.35,0,0,0,.72-1.85,2.42,2.42,0,0,0-.72-1.83,2.8,2.8,0,0,0-2-.71H78.87Z" transform="translate(0 -2.96)"/>
    <path d="M93.23,350.19h-3v5.17h-1.7V342.57h4.24a5,5,0,0,1,3.32,1,3.54,3.54,0,0,1,1.17,2.87,3.45,3.45,0,0,1-.65,2.08,3.91,3.91,0,0,1-1.8,1.33l3,5.43v.1H96Zm-3-1.38h2.59a3,3,0,0,0,2-.65,2.24,2.24,0,0,0,.74-1.75,2.32,2.32,0,0,0-.71-1.82,3,3,0,0,0-2-.64H90.23Z" transform="translate(0 -2.96)"/>
    <path d="M109.46,349.38a7.93,7.93,0,0,1-.63,3.28A4.76,4.76,0,0,1,107,354.8a5.28,5.28,0,0,1-5.39,0,4.9,4.9,0,0,1-1.81-2.12,7.6,7.6,0,0,1-.67-3.19v-.92a7.93,7.93,0,0,1,.64-3.26,5,5,0,0,1,1.82-2.17,4.87,4.87,0,0,1,2.68-.75,5,5,0,0,1,2.72.74,4.82,4.82,0,0,1,1.8,2.16,8,8,0,0,1,.63,3.28Zm-1.67-.83a5.71,5.71,0,0,0-.92-3.49,3,3,0,0,0-2.56-1.22,3,3,0,0,0-2.51,1.22,5.59,5.59,0,0,0-1,3.38v.94a5.76,5.76,0,0,0,.93,3.47,3.25,3.25,0,0,0,5.08.07,5.75,5.75,0,0,0,.93-3.42Z" transform="translate(0 -2.96)"/>
    <path d="M113.68,350.35v5H112V342.57h4.72a4.72,4.72,0,0,1,3.29,1.07,3.64,3.64,0,0,1,1.19,2.84,3.58,3.58,0,0,1-1.17,2.87,4.93,4.93,0,0,1-3.33,1Zm0-1.38h3a3,3,0,0,0,2.07-.63,2.35,2.35,0,0,0,.72-1.85,2.42,2.42,0,0,0-.72-1.83,2.8,2.8,0,0,0-2-.71h-3.13Z" transform="translate(0 -2.96)"/>
    <path d="M132,347.47l3.07-4.9h2l-4,6.34,4.14,6.45h-2l-3.15-5-3.16,5h-2l4.15-6.45-4-6.34h2Z" transform="translate(0 -2.96)"/>
    <path d="M64.18,371.31H58.81V377H57.13V364.17h7.92v1.38H58.81v4.38h5.37Z" transform="translate(0 -2.96)"/>
    <path d="M76.08,364.17v8.7a4.06,4.06,0,0,1-1.13,3,4.59,4.59,0,0,1-3.07,1.29l-.45,0A4.79,4.79,0,0,1,68.09,376a4,4,0,0,1-1.27-3.12v-8.72h1.67v8.66a2.92,2.92,0,0,0,.76,2.16,3,3,0,0,0,2.18.77,3,3,0,0,0,2.2-.76,3,3,0,0,0,.76-2.16v-8.67Z" transform="translate(0 -2.96)"/>
    <path d="M88.58,377H86.89l-6.45-9.86V377H78.75V364.17h1.69l6.46,9.9v-9.9h1.68Z" transform="translate(0 -2.96)"/>
    <path d="M101,372.9a4.73,4.73,0,0,1-1.5,3.14,4.92,4.92,0,0,1-3.35,1.1,4.49,4.49,0,0,1-3.63-1.63,6.53,6.53,0,0,1-1.37-4.35v-1.23a7.25,7.25,0,0,1,.64-3.14,4.68,4.68,0,0,1,1.8-2.07,5,5,0,0,1,2.71-.73,4.62,4.62,0,0,1,3.27,1.14,4.75,4.75,0,0,1,1.43,3.15H99.3a3.7,3.7,0,0,0-1-2.22,2.87,2.87,0,0,0-2-.69,3,3,0,0,0-2.54,1.2,5.5,5.5,0,0,0-.91,3.4v1.24a5.66,5.66,0,0,0,.87,3.32,2.81,2.81,0,0,0,2.43,1.23,3.22,3.22,0,0,0,2.16-.64,3.55,3.55,0,0,0,1-2.22Z" transform="translate(0 -2.96)"/>
    <path d="M111.88,365.55h-4.11V377h-1.68V365.55H102v-1.38h9.89Z" transform="translate(0 -2.96)"/>
    <path d="M115.59,377H113.9V364.17h1.69Z" transform="translate(0 -2.96)"/>
    <path d="M128.52,371a7.93,7.93,0,0,1-.63,3.28,4.78,4.78,0,0,1-1.8,2.14,4.95,4.95,0,0,1-7.2-2.12,7.6,7.6,0,0,1-.66-3.19v-.92a7.77,7.77,0,0,1,.64-3.26,4.72,4.72,0,0,1,4.5-2.92,5,5,0,0,1,2.71.74,4.9,4.9,0,0,1,1.81,2.16,8,8,0,0,1,.63,3.28Zm-1.68-.83a5.71,5.71,0,0,0-.91-3.49,3,3,0,0,0-2.56-1.22,3,3,0,0,0-2.52,1.22,5.59,5.59,0,0,0-.94,3.38V371a5.83,5.83,0,0,0,.92,3.47,3.26,3.26,0,0,0,5.09.07,5.75,5.75,0,0,0,.92-3.42Z" transform="translate(0 -2.96)"/>
    <path d="M140.89,377h-1.7l-6.44-9.86V377h-1.7V364.17h1.7l6.46,9.9v-9.9h1.68Z" transform="translate(0 -2.96)"/>
    <path d="M152.24,370.59l3.34-6.42h1.92l-4.42,8V377H151.4v-4.77l-4.41-8h1.93Z" transform="translate(0 -2.96)"/>
  </g>
  <g>
    <path d="M47,314.87l5,2.22-.29,1.65-6.42-3.33.23-1.29L53,310.8l-.32,1.8Z" transform="translate(0 -2.96)"/>
    <path d="M63.9,316.42a5.12,5.12,0,0,1-1.8,3.14,5,5,0,0,1-3.42,1.11,4,4,0,0,1-2.08-.58,3.77,3.77,0,0,1-1.38-1.61,5.9,5.9,0,0,1-.54-2.33,7.19,7.19,0,0,1,.06-1.4l.15-1.06a8,8,0,0,1,2-4.55,5.13,5.13,0,0,1,3.93-1.62,3.81,3.81,0,0,1,2.86,1.17,4.62,4.62,0,0,1,1.11,3.13H63.17c-.08-1.79-.78-2.76-2.11-2.9l-.29,0A3.37,3.37,0,0,0,58,310.14a6.61,6.61,0,0,0-1.44,3.49L56.37,315l-.06.77a4.36,4.36,0,0,0,.58,2.57,2.15,2.15,0,0,0,1.87,1,3.28,3.28,0,0,0,2.21-.64,4.32,4.32,0,0,0,1.33-2.21Z" transform="translate(0 -2.96)"/>
    <path d="M70.29,320.67a4.11,4.11,0,0,1-2.13-.59,3.74,3.74,0,0,1-1.41-1.66,6.22,6.22,0,0,1-.58-2.45,12.21,12.21,0,0,1,.24-2.63,9.08,9.08,0,0,1,1-2.82,6.47,6.47,0,0,1,1.73-2,5,5,0,0,1,3.15-1,3.77,3.77,0,0,1,2.95,1.3,5.32,5.32,0,0,1,1.16,3.41,11.89,11.89,0,0,1-.18,2.35,9.77,9.77,0,0,1-.8,2.64,6.69,6.69,0,0,1-1.47,2A5,5,0,0,1,70.29,320.67Zm4.49-8a4.48,4.48,0,0,0-.61-2.69,2.34,2.34,0,0,0-2-1,3.33,3.33,0,0,0-2.1.64,4.69,4.69,0,0,0-1.52,2,10,10,0,0,0-.75,3.37l0,.57a4.5,4.5,0,0,0,.61,2.7,2.33,2.33,0,0,0,2,1,3.38,3.38,0,0,0,2.75-1.2,6.84,6.84,0,0,0,1.46-3.5A17.79,17.79,0,0,0,74.78,312.64Z" transform="translate(0 -2.96)"/>
    <path d="M87.24,320.49h-1.6l-4.57-9.93-1.72,9.93H77.69l2.22-12.79h1.6l4.58,10,1.73-10h1.65Z" transform="translate(0 -2.96)"/>
    <path d="M97.41,317.2c.13-.94-.36-1.62-1.46-2.06l-1.52-.55-.51-.22q-2.57-1.17-2.4-3.29a3.44,3.44,0,0,1,.73-1.88,4.19,4.19,0,0,1,1.7-1.26,5.38,5.38,0,0,1,2.26-.42,4.53,4.53,0,0,1,2.07.52,3.4,3.4,0,0,1,1.38,1.38,3.65,3.65,0,0,1,.42,2H98.42a2.28,2.28,0,0,0-.53-1.83,2.35,2.35,0,0,0-1.75-.67,3.34,3.34,0,0,0-2,.56,2.2,2.2,0,0,0-.93,1.59c-.12.87.42,1.54,1.61,2l1.31.47.66.28c1.65.76,2.42,1.89,2.29,3.39a3.32,3.32,0,0,1-.73,1.87,4.13,4.13,0,0,1-1.71,1.22,6.07,6.07,0,0,1-2.34.4,5,5,0,0,1-2.2-.51,3.6,3.6,0,0,1-1.52-1.39,3.49,3.49,0,0,1-.45-2h1.65a2.17,2.17,0,0,0,.62,1.81,2.76,2.76,0,0,0,2,.69,3.54,3.54,0,0,0,2.1-.55A2.18,2.18,0,0,0,97.41,317.2Z" transform="translate(0 -2.96)"/>
    <path d="M111.68,307.7l-1.47,8.65a4.93,4.93,0,0,1-1.73,3.18,5,5,0,0,1-3.43,1.15,4.5,4.5,0,0,1-2.19-.57,3.29,3.29,0,0,1-1.36-1.52,4.07,4.07,0,0,1-.29-2.23l1.47-8.66h1.63l-1.47,8.68a2.76,2.76,0,0,0,.46,2.11,2.26,2.26,0,0,0,1.84.81,3.17,3.17,0,0,0,2.25-.73,3.52,3.52,0,0,0,1.16-2.18L110,307.7Z" transform="translate(0 -2.96)"/>
    <path d="M116.39,307.7l2.24,10.42,5.87-10.42h2.17l-2.22,12.79H122.8l.88-5.06,1-5.15-5.8,10.21h-1.27l-2.28-10.41-.8,5.52-.85,4.89h-1.65l2.22-12.79Z" transform="translate(0 -2.96)"/>
    <path d="M135.47,314.58h-5.38l-.79,4.53h6.26l-.25,1.38h-7.9l2.22-12.79h7.81l-.24,1.38H131l-.71,4.12h5.37Z" transform="translate(0 -2.96)"/>
    <path d="M142.92,315.33H140l-.9,5.16h-1.66l2.22-12.79h3.85a4.25,4.25,0,0,1,3.07,1,3.19,3.19,0,0,1,.89,2.75,3.69,3.69,0,0,1-.88,2.12,4.78,4.78,0,0,1-2.07,1.38l2,5.4v.11h-1.76Zm-2.72-1.39h2.43a3.4,3.4,0,0,0,2.14-.68,2.59,2.59,0,0,0,1-1.79,2.11,2.11,0,0,0-.44-1.73,2.4,2.4,0,0,0-1.74-.66h-2.56Z" transform="translate(0 -2.96)"/>
    <path d="M152.6,321.59h-1.44l7.59-13.89h1.43Z" transform="translate(0 -2.96)"/>
    <path d="M166.3,314.75,161,312.47l.29-1.6,6.72,3.33-.23,1.28-7.88,3.34.32-1.77Z" transform="translate(0 -2.96)"/>
  </g>
</svg>
