<svg id="Layer_1" data-name="Layer 1" xmlns="http://www.w3.org/2000/svg" width="368.3" height="637.38" viewBox="0 0 368.3 637.38">
  <title>prop-drilling-diagram</title>
  <rect x="107.8" y="40.14" width="150" height="100" style="fill: #fff;stroke: #000;stroke-miterlimit: 10"/>
  <rect x="217.8" y="169.22" width="150" height="100" style="fill: #fff;stroke: #000;stroke-miterlimit: 10"/>
  <rect x="0.5" y="169.22" width="150" height="100" style="fill: #fff;stroke: #000;stroke-miterlimit: 10"/>
  <rect x="217.8" y="292.49" width="150" height="100" style="fill: #fff;stroke: #000;stroke-miterlimit: 10"/>
  <rect x="217.8" y="415.75" width="150" height="100" style="fill: #fff;stroke: #000;stroke-miterlimit: 10"/>
  <rect x="217.8" y="536.88" width="150" height="100" style="fill: #fff;stroke: #000;stroke-miterlimit: 10"/>
  <g>
    <path d="M152.43,102.81a7.93,7.93,0,0,1-3.16-1.53,2.94,2.94,0,0,1-1-2.25,3.08,3.08,0,0,1,1.21-2.5,4.78,4.78,0,0,1,3.14-1,5.24,5.24,0,0,1,2.35.51,3.86,3.86,0,0,1,1.6,1.41,3.58,3.58,0,0,1,.57,2h-1.7a2.3,2.3,0,0,0-.74-1.83,3,3,0,0,0-2.08-.67,3.14,3.14,0,0,0-1.95.55A1.86,1.86,0,0,0,150,99a1.67,1.67,0,0,0,.66,1.33,6.47,6.47,0,0,0,2.26,1,10.51,10.51,0,0,1,2.49,1,3.81,3.81,0,0,1,1.34,1.26,3.2,3.2,0,0,1,.44,1.69,3,3,0,0,1-1.22,2.5,5.2,5.2,0,0,1-3.24.93,6.11,6.11,0,0,1-2.46-.5,4.13,4.13,0,0,1-1.76-1.39,3.31,3.31,0,0,1-.62-2h1.69a2.21,2.21,0,0,0,.86,1.83,3.59,3.59,0,0,0,2.29.67,3.36,3.36,0,0,0,2.05-.54,1.79,1.79,0,0,0,.71-1.49,1.72,1.72,0,0,0-.66-1.45A7.6,7.6,0,0,0,152.43,102.81Z" transform="translate(0 -2.96)"/>
    <path d="M168.18,97.1h-4.11v11.42h-1.68V97.1h-4.11V95.72h9.9Z" transform="translate(0 -2.96)"/>
    <path d="M176.45,105.17h-5.36l-1.21,3.35h-1.74L173,95.72h1.48l4.89,12.8h-1.73Zm-4.85-1.38H176l-2.18-6Z" transform="translate(0 -2.96)"/>
    <path d="M188.83,97.1h-4.11v11.42H183V97.1h-4.1V95.72h9.89Z" transform="translate(0 -2.96)"/>
    <path d="M198,102.6h-5.55v4.54h6.44v1.38h-8.13V95.72h8V97.1h-6.35v4.12H198Z" transform="translate(0 -2.96)"/>
    <path d="M209.59,100.62l3.07-4.9h2l-4.05,6.34,4.14,6.46h-2l-3.15-5-3.16,5h-2l4.15-6.46-4.05-6.34h2Z" transform="translate(0 -2.96)"/>
    <path d="M138.73,124.46h-5.37v5.66h-1.69v-12.8h7.93v1.38h-6.24v4.38h5.37Z" transform="translate(0 -2.96)"/>
    <path d="M150.63,117.32V126a4.11,4.11,0,0,1-1.14,3,4.54,4.54,0,0,1-3.06,1.29l-.45,0a4.82,4.82,0,0,1-3.35-1.13,4.11,4.11,0,0,1-1.27-3.12v-8.72H143V126a2.68,2.68,0,0,0,2.95,2.92,3,3,0,0,0,2.19-.76,2.92,2.92,0,0,0,.76-2.16v-8.67Z" transform="translate(0 -2.96)"/>
    <path d="M163.13,130.12h-1.7L155,120.25v9.87h-1.7v-12.8H155l6.46,9.9v-9.9h1.68Z" transform="translate(0 -2.96)"/>
    <path d="M175.54,126.06a4.73,4.73,0,0,1-1.5,3.13,4.94,4.94,0,0,1-3.36,1.1,4.51,4.51,0,0,1-3.63-1.62,6.57,6.57,0,0,1-1.37-4.35v-1.24a7.35,7.35,0,0,1,.64-3.13,4.68,4.68,0,0,1,1.81-2.08,5.05,5.05,0,0,1,2.7-.73,4.62,4.62,0,0,1,3.27,1.14,4.8,4.8,0,0,1,1.44,3.15h-1.7a3.76,3.76,0,0,0-1-2.22,2.9,2.9,0,0,0-2.06-.69,3,3,0,0,0-2.53,1.2,5.5,5.5,0,0,0-.92,3.4v1.24a5.66,5.66,0,0,0,.87,3.32,2.81,2.81,0,0,0,2.43,1.23,3.22,3.22,0,0,0,2.16-.64,3.49,3.49,0,0,0,1-2.21Z" transform="translate(0 -2.96)"/>
    <path d="M186.43,118.7h-4.12v11.42h-1.68V118.7h-4.1v-1.38h9.9Z" transform="translate(0 -2.96)"/>
    <path d="M190.13,130.12h-1.68v-12.8h1.68Z" transform="translate(0 -2.96)"/>
    <path d="M203.06,124.13a7.93,7.93,0,0,1-.63,3.28,4.76,4.76,0,0,1-1.79,2.14,5.28,5.28,0,0,1-5.39,0,5,5,0,0,1-1.82-2.12,7.58,7.58,0,0,1-.66-3.18v-.93a7.77,7.77,0,0,1,.64-3.26,4.92,4.92,0,0,1,1.82-2.16,4.78,4.78,0,0,1,2.68-.76,4.9,4.9,0,0,1,2.71.75,4.7,4.7,0,0,1,1.81,2.15,8,8,0,0,1,.63,3.28Zm-1.68-.83a5.73,5.73,0,0,0-.91-3.49,3.25,3.25,0,0,0-5.08,0,5.65,5.65,0,0,0-.94,3.38v.94a5.74,5.74,0,0,0,.93,3.47,3.25,3.25,0,0,0,5.08.07,5.66,5.66,0,0,0,.92-3.42Z" transform="translate(0 -2.96)"/>
    <path d="M215.43,130.12h-1.7l-6.44-9.87v9.87h-1.7v-12.8h1.7l6.46,9.9v-9.9h1.68Z" transform="translate(0 -2.96)"/>
    <path d="M226.78,123.74l3.34-6.42H232l-4.41,8v4.78h-1.69v-4.78l-4.41-8h1.93Z" transform="translate(0 -2.96)"/>
  </g>
  <g>
    <path d="M265,230.51v5h-1.69v-12.8h4.72a4.8,4.8,0,0,1,3.3,1.07,3.65,3.65,0,0,1,1.19,2.84,3.58,3.58,0,0,1-1.17,2.87,5,5,0,0,1-3.33,1Zm0-1.38h3a3.06,3.06,0,0,0,2.08-.64,2.35,2.35,0,0,0,.72-1.85,2.42,2.42,0,0,0-.72-1.83,2.84,2.84,0,0,0-2-.71H265Z" transform="translate(0 -2.96)"/>
    <path d="M279.38,230.34h-3v5.18h-1.7v-12.8h4.24a5,5,0,0,1,3.32,1,3.54,3.54,0,0,1,1.17,2.87,3.43,3.43,0,0,1-.65,2.08A3.87,3.87,0,0,1,281,230l3,5.43v.11h-1.81Zm-3-1.38H279a3,3,0,0,0,2-.65,2.2,2.2,0,0,0,.74-1.75,2.32,2.32,0,0,0-.7-1.82,3,3,0,0,0-2.05-.64h-2.58Z" transform="translate(0 -2.96)"/>
    <path d="M295.62,229.53a7.77,7.77,0,0,1-.64,3.28,4.76,4.76,0,0,1-1.79,2.14,4.85,4.85,0,0,1-2.71.74,4.75,4.75,0,0,1-4.49-2.86,7.58,7.58,0,0,1-.66-3.18v-.93a7.77,7.77,0,0,1,.64-3.26,5,5,0,0,1,7.21-2.17,4.74,4.74,0,0,1,1.8,2.15,7.8,7.8,0,0,1,.64,3.28Zm-1.68-.83a5.73,5.73,0,0,0-.92-3.49,3,3,0,0,0-2.55-1.22,3,3,0,0,0-2.52,1.22,5.65,5.65,0,0,0-.95,3.38v.94a5.74,5.74,0,0,0,.93,3.47,3.26,3.26,0,0,0,5.09.07,5.8,5.8,0,0,0,.92-3.42Z" transform="translate(0 -2.96)"/>
    <path d="M299.84,230.51v5h-1.69v-12.8h4.72a4.75,4.75,0,0,1,3.29,1.07,3.65,3.65,0,0,1,1.19,2.84,3.61,3.61,0,0,1-1.16,2.87,5,5,0,0,1-3.34,1Zm0-1.38h3a3.05,3.05,0,0,0,2.07-.64,2.35,2.35,0,0,0,.72-1.85,2.42,2.42,0,0,0-.72-1.83,2.84,2.84,0,0,0-2-.71h-3.12Z" transform="translate(0 -2.96)"/>
    <path d="M318.13,227.62l3.07-4.9h2l-4,6.34,4.14,6.46h-2l-3.15-5-3.16,5h-2l4.14-6.46-4.05-6.34h2Z" transform="translate(0 -2.96)"/>
    <path d="M250.34,251.46H245v5.66h-1.69v-12.8h7.93v1.38H245v4.38h5.37Z" transform="translate(0 -2.96)"/>
    <path d="M262.24,244.32V253a4.11,4.11,0,0,1-1.14,3,4.56,4.56,0,0,1-3.06,1.29l-.45,0a4.82,4.82,0,0,1-3.35-1.13A4.07,4.07,0,0,1,253,253v-8.72h1.67V253a2.68,2.68,0,0,0,2.95,2.92,3,3,0,0,0,2.19-.76,2.92,2.92,0,0,0,.76-2.16v-8.67Z" transform="translate(0 -2.96)"/>
    <path d="M274.73,257.12H273l-6.44-9.87v9.87h-1.7v-12.8h1.7l6.46,9.9v-9.9h1.67Z" transform="translate(0 -2.96)"/>
    <path d="M287.14,253.06a4.68,4.68,0,0,1-1.49,3.13,4.94,4.94,0,0,1-3.36,1.1,4.51,4.51,0,0,1-3.63-1.62,6.57,6.57,0,0,1-1.37-4.35v-1.24a7.2,7.2,0,0,1,.64-3.13,4.68,4.68,0,0,1,1.81-2.08,5,5,0,0,1,2.7-.73,4.62,4.62,0,0,1,3.27,1.14,4.75,4.75,0,0,1,1.43,3.15h-1.69a3.7,3.7,0,0,0-1-2.22,2.86,2.86,0,0,0-2.05-.69,3,3,0,0,0-2.53,1.2,5.44,5.44,0,0,0-.92,3.4v1.24a5.66,5.66,0,0,0,.87,3.32,2.81,2.81,0,0,0,2.43,1.23,3.22,3.22,0,0,0,2.16-.64,3.54,3.54,0,0,0,1-2.21Z" transform="translate(0 -2.96)"/>
    <path d="M298,245.7h-4.11v11.42h-1.68V245.7h-4.1v-1.38H298Z" transform="translate(0 -2.96)"/>
    <path d="M301.74,257.12h-1.68v-12.8h1.68Z" transform="translate(0 -2.96)"/>
    <path d="M314.67,251.13a7.93,7.93,0,0,1-.63,3.28,4.76,4.76,0,0,1-1.79,2.14,5,5,0,0,1-7.21-2.12,7.58,7.58,0,0,1-.66-3.18v-.93a7.77,7.77,0,0,1,.64-3.26,4.86,4.86,0,0,1,1.82-2.16,4.78,4.78,0,0,1,2.68-.76,4.9,4.9,0,0,1,2.71.75A4.7,4.7,0,0,1,314,247a8,8,0,0,1,.63,3.28ZM313,250.3a5.73,5.73,0,0,0-.91-3.49,3.25,3.25,0,0,0-5.08,0,5.65,5.65,0,0,0-.94,3.38v.94a5.74,5.74,0,0,0,.93,3.47,3.25,3.25,0,0,0,5.08.07,5.66,5.66,0,0,0,.92-3.42Z" transform="translate(0 -2.96)"/>
    <path d="M327,257.12h-1.7l-6.44-9.87v9.87h-1.7v-12.8h1.7l6.46,9.9v-9.9H327Z" transform="translate(0 -2.96)"/>
    <path d="M338.39,250.74l3.34-6.42h1.92l-4.41,8v4.78h-1.69v-4.78l-4.41-8h1.93Z" transform="translate(0 -2.96)"/>
  </g>
  <g>
    <path d="M265,352.29v5h-1.69V344.5h4.72a4.8,4.8,0,0,1,3.3,1.07,3.67,3.67,0,0,1,1.19,2.84,3.57,3.57,0,0,1-1.17,2.87,5,5,0,0,1-3.33,1Zm0-1.38h3a3,3,0,0,0,2.08-.64,2.32,2.32,0,0,0,.72-1.84,2.39,2.39,0,0,0-.72-1.83,2.85,2.85,0,0,0-2-.72H265Z" transform="translate(0 -2.96)"/>
    <path d="M279.38,352.12h-3v5.18h-1.7V344.5h4.24a5,5,0,0,1,3.32,1,3.52,3.52,0,0,1,1.17,2.86,3.43,3.43,0,0,1-.65,2.08,3.8,3.8,0,0,1-1.79,1.33l3,5.43v.11h-1.81Zm-3-1.38H279a3,3,0,0,0,2-.65,2.2,2.2,0,0,0,.74-1.74,2.31,2.31,0,0,0-.71-1.83,3,3,0,0,0-2-.64h-2.58Z" transform="translate(0 -2.96)"/>
    <path d="M295.62,351.31a7.82,7.82,0,0,1-.64,3.29,4.86,4.86,0,0,1-1.79,2.14,4.93,4.93,0,0,1-2.71.73,4.75,4.75,0,0,1-4.49-2.86,7.71,7.71,0,0,1-.67-3.18v-.93a7.81,7.81,0,0,1,.65-3.26,4.74,4.74,0,0,1,4.5-2.91,4.92,4.92,0,0,1,2.71.74,4.74,4.74,0,0,1,1.8,2.15,7.84,7.84,0,0,1,.64,3.28Zm-1.68-.82A5.77,5.77,0,0,0,293,347a3,3,0,0,0-2.55-1.21A3,3,0,0,0,288,347a5.68,5.68,0,0,0-.95,3.38v.94a5.74,5.74,0,0,0,.93,3.47,3.26,3.26,0,0,0,5.09.07,5.77,5.77,0,0,0,.92-3.41Z" transform="translate(0 -2.96)"/>
    <path d="M299.84,352.29v5h-1.69V344.5h4.72a4.75,4.75,0,0,1,3.29,1.07,3.67,3.67,0,0,1,1.19,2.84,3.59,3.59,0,0,1-1.16,2.87,5,5,0,0,1-3.34,1Zm0-1.38h3a3,3,0,0,0,2.07-.64,2.32,2.32,0,0,0,.72-1.84,2.39,2.39,0,0,0-.72-1.83,2.85,2.85,0,0,0-2-.72h-3.12Z" transform="translate(0 -2.96)"/>
    <path d="M318.13,349.41l3.07-4.91h2l-4.05,6.35,4.14,6.45h-2l-3.15-5-3.16,5h-2l4.15-6.45-4.05-6.35h2Z" transform="translate(0 -2.96)"/>
    <path d="M250.34,373.25H245v5.65h-1.69V366.1h7.93v1.38H245v4.39h5.37Z" transform="translate(0 -2.96)"/>
    <path d="M262.24,366.1v8.7a4.13,4.13,0,0,1-1.14,3,4.68,4.68,0,0,1-3.07,1.29h-.44a4.77,4.77,0,0,1-3.35-1.13,4,4,0,0,1-1.27-3.12V366.1h1.67v8.67a3.11,3.11,0,0,0,5.14,2.16,2.91,2.91,0,0,0,.76-2.15V366.1Z" transform="translate(0 -2.96)"/>
    <path d="M274.73,378.9H273L266.6,369v9.86h-1.7V366.1h1.7l6.46,9.91V366.1h1.67Z" transform="translate(0 -2.96)"/>
    <path d="M287.14,374.84a4.66,4.66,0,0,1-1.49,3.13,4.91,4.91,0,0,1-3.36,1.1,4.51,4.51,0,0,1-3.63-1.62,6.57,6.57,0,0,1-1.37-4.35v-1.23a7.22,7.22,0,0,1,.64-3.14,4.77,4.77,0,0,1,1.8-2.08,5.08,5.08,0,0,1,2.71-.72,4.66,4.66,0,0,1,3.27,1.13,4.75,4.75,0,0,1,1.43,3.16h-1.69a3.71,3.71,0,0,0-1-2.23,2.91,2.91,0,0,0-2.05-.68,3,3,0,0,0-2.53,1.19,5.45,5.45,0,0,0-.92,3.41v1.24a5.62,5.62,0,0,0,.87,3.31,2.81,2.81,0,0,0,2.43,1.23,3.27,3.27,0,0,0,2.16-.63,3.6,3.6,0,0,0,1-2.22Z" transform="translate(0 -2.96)"/>
    <path d="M298,367.48h-4.11V378.9h-1.68V367.48h-4.1V366.1H298Z" transform="translate(0 -2.96)"/>
    <path d="M301.74,378.9h-1.68V366.1h1.68Z" transform="translate(0 -2.96)"/>
    <path d="M314.67,372.91a8,8,0,0,1-.63,3.29,4.86,4.86,0,0,1-1.79,2.14,5,5,0,0,1-2.71.73,4.78,4.78,0,0,1-4.5-2.86,7.55,7.55,0,0,1-.66-3.18v-.93a7.81,7.81,0,0,1,.64-3.26,5.05,5.05,0,0,1,7.21-2.17,4.76,4.76,0,0,1,1.81,2.15,8,8,0,0,1,.63,3.28Zm-1.68-.82a5.77,5.77,0,0,0-.91-3.5,3.27,3.27,0,0,0-5.08,0,5.68,5.68,0,0,0-.94,3.38v.94a5.74,5.74,0,0,0,.93,3.47,3.25,3.25,0,0,0,5.08.07A5.7,5.7,0,0,0,313,373Z" transform="translate(0 -2.96)"/>
    <path d="M327,378.9h-1.7L318.9,369v9.86h-1.7V366.1h1.7l6.46,9.91V366.1H327Z" transform="translate(0 -2.96)"/>
    <path d="M338.39,372.53l3.34-6.43h1.92l-4.41,8v4.77h-1.69v-4.77l-4.41-8h1.93Z" transform="translate(0 -2.96)"/>
  </g>
  <g>
    <path d="M265,477v5h-1.69v-12.8h4.72a4.8,4.8,0,0,1,3.3,1.07,3.65,3.65,0,0,1,1.19,2.84,3.58,3.58,0,0,1-1.17,2.87,5,5,0,0,1-3.33,1Zm0-1.38h3a3,3,0,0,0,2.08-.64,2.34,2.34,0,0,0,.72-1.84,2.43,2.43,0,0,0-.72-1.84,2.89,2.89,0,0,0-2-.71H265Z" transform="translate(0 -2.96)"/>
    <path d="M279.38,476.86h-3V482h-1.7v-12.8h4.24a5,5,0,0,1,3.32,1,3.52,3.52,0,0,1,1.17,2.86,3.43,3.43,0,0,1-.65,2.08A3.8,3.8,0,0,1,281,476.5l3,5.43V482h-1.81Zm-3-1.38H279a3,3,0,0,0,2-.65,2.22,2.22,0,0,0,.74-1.74,2.31,2.31,0,0,0-.71-1.83,3,3,0,0,0-2-.64h-2.58Z" transform="translate(0 -2.96)"/>
    <path d="M295.62,476.05a7.82,7.82,0,0,1-.64,3.29,4.86,4.86,0,0,1-1.79,2.14,4.93,4.93,0,0,1-2.71.73,4.75,4.75,0,0,1-4.49-2.86,7.71,7.71,0,0,1-.67-3.18v-.93A7.81,7.81,0,0,1,286,472a4.84,4.84,0,0,1,1.81-2.16,5.21,5.21,0,0,1,5.4,0A4.74,4.74,0,0,1,295,472a7.84,7.84,0,0,1,.64,3.28Zm-1.68-.82a5.75,5.75,0,0,0-.92-3.5,3,3,0,0,0-2.55-1.21,3,3,0,0,0-2.52,1.21,5.65,5.65,0,0,0-.95,3.38v.94a5.74,5.74,0,0,0,.93,3.47,3.26,3.26,0,0,0,5.09.07,5.77,5.77,0,0,0,.92-3.41Z" transform="translate(0 -2.96)"/>
    <path d="M299.84,477v5h-1.69v-12.8h4.72a4.75,4.75,0,0,1,3.29,1.07,3.65,3.65,0,0,1,1.19,2.84,3.61,3.61,0,0,1-1.16,2.87,5,5,0,0,1-3.34,1Zm0-1.38h3a3,3,0,0,0,2.07-.64,2.34,2.34,0,0,0,.72-1.84,2.43,2.43,0,0,0-.72-1.84,2.89,2.89,0,0,0-2-.71h-3.12Z" transform="translate(0 -2.96)"/>
    <path d="M318.13,474.15l3.07-4.91h2l-4.05,6.35,4.14,6.45h-2l-3.15-5L315,482h-2l4.15-6.45-4.05-6.35h2Z" transform="translate(0 -2.96)"/>
    <path d="M250.34,498H245v5.65h-1.69v-12.8h7.93v1.38H245v4.39h5.37Z" transform="translate(0 -2.96)"/>
    <path d="M262.24,490.84v8.7a4.09,4.09,0,0,1-1.14,3,4.64,4.64,0,0,1-3.07,1.3h-.44a4.77,4.77,0,0,1-3.35-1.13,4.07,4.07,0,0,1-1.27-3.12v-8.72h1.67v8.67a2.68,2.68,0,0,0,2.95,2.92,3,3,0,0,0,2.19-.76,2.91,2.91,0,0,0,.76-2.15v-8.68Z" transform="translate(0 -2.96)"/>
    <path d="M274.73,503.64H273l-6.44-9.86v9.86h-1.7v-12.8h1.7l6.46,9.91v-9.91h1.67Z" transform="translate(0 -2.96)"/>
    <path d="M287.14,499.58a4.66,4.66,0,0,1-1.49,3.13,4.91,4.91,0,0,1-3.36,1.1,4.51,4.51,0,0,1-3.63-1.62,6.57,6.57,0,0,1-1.37-4.35v-1.23a7.22,7.22,0,0,1,.64-3.14,4.77,4.77,0,0,1,1.8-2.08,5.08,5.08,0,0,1,2.71-.72,4.61,4.61,0,0,1,3.27,1.13,4.75,4.75,0,0,1,1.43,3.15h-1.69a3.7,3.7,0,0,0-1-2.22,2.87,2.87,0,0,0-2.05-.68,3,3,0,0,0-2.53,1.19,5.45,5.45,0,0,0-.92,3.41v1.24a5.62,5.62,0,0,0,.87,3.31,2.81,2.81,0,0,0,2.43,1.23,3.27,3.27,0,0,0,2.16-.63,3.6,3.6,0,0,0,1-2.22Z" transform="translate(0 -2.96)"/>
    <path d="M298,492.22h-4.11v11.42h-1.68V492.22h-4.1v-1.38H298Z" transform="translate(0 -2.96)"/>
    <path d="M301.74,503.64h-1.68v-12.8h1.68Z" transform="translate(0 -2.96)"/>
    <path d="M314.67,497.65a8,8,0,0,1-.63,3.29,4.86,4.86,0,0,1-1.79,2.14,5,5,0,0,1-2.71.73A4.78,4.78,0,0,1,305,501a7.55,7.55,0,0,1-.66-3.18v-.93a7.81,7.81,0,0,1,.64-3.26,5.05,5.05,0,0,1,7.21-2.17,4.76,4.76,0,0,1,1.81,2.15,8,8,0,0,1,.63,3.28Zm-1.68-.82a5.75,5.75,0,0,0-.91-3.5,3.27,3.27,0,0,0-5.08,0,5.65,5.65,0,0,0-.94,3.38v.94a5.74,5.74,0,0,0,.93,3.47,3.25,3.25,0,0,0,5.08.07,5.7,5.7,0,0,0,.92-3.41Z" transform="translate(0 -2.96)"/>
    <path d="M327,503.64h-1.7l-6.44-9.86v9.86h-1.7v-12.8h1.7l6.46,9.91v-9.91H327Z" transform="translate(0 -2.96)"/>
    <path d="M338.39,497.27l3.34-6.43h1.92l-4.41,8v4.77h-1.69v-4.77l-4.41-8h1.93Z" transform="translate(0 -2.96)"/>
  </g>
  <g>
    <path d="M265,596v5h-1.69V588.2h4.72a4.8,4.8,0,0,1,3.3,1.07,3.64,3.64,0,0,1,1.19,2.84,3.58,3.58,0,0,1-1.17,2.87,4.94,4.94,0,0,1-3.33,1Zm0-1.38h3a3.06,3.06,0,0,0,2.08-.63,2.35,2.35,0,0,0,.72-1.85,2.42,2.42,0,0,0-.72-1.83,2.84,2.84,0,0,0-2-.71H265Z" transform="translate(0 -2.96)"/>
    <path d="M279.38,595.82h-3V601h-1.7V588.2h4.24a5,5,0,0,1,3.32,1,3.54,3.54,0,0,1,1.17,2.87,3.45,3.45,0,0,1-.65,2.08,3.94,3.94,0,0,1-1.79,1.33l3,5.43v.1h-1.81Zm-3-1.38H279a3,3,0,0,0,2-.65,2.24,2.24,0,0,0,.74-1.75,2.29,2.29,0,0,0-.71-1.82,3,3,0,0,0-2-.64h-2.58Z" transform="translate(0 -2.96)"/>
    <path d="M295.62,595a7.77,7.77,0,0,1-.64,3.28,4.76,4.76,0,0,1-1.79,2.14,4.93,4.93,0,0,1-7.2-2.12,7.76,7.76,0,0,1-.67-3.19v-.92a7.77,7.77,0,0,1,.65-3.26,4.72,4.72,0,0,1,4.5-2.92,5,5,0,0,1,2.71.74,4.82,4.82,0,0,1,1.8,2.16,7.8,7.8,0,0,1,.64,3.28Zm-1.68-.83a5.73,5.73,0,0,0-.92-3.49,3,3,0,0,0-2.55-1.22,3,3,0,0,0-2.52,1.22,5.65,5.65,0,0,0-.95,3.38V595a5.74,5.74,0,0,0,.93,3.47,3.26,3.26,0,0,0,5.09.07,5.82,5.82,0,0,0,.92-3.42Z" transform="translate(0 -2.96)"/>
    <path d="M299.84,596v5h-1.69V588.2h4.72a4.75,4.75,0,0,1,3.29,1.07,4.06,4.06,0,0,1,0,5.71,5,5,0,0,1-3.34,1Zm0-1.38h3a3,3,0,0,0,2.07-.63,2.35,2.35,0,0,0,.72-1.85,2.42,2.42,0,0,0-.72-1.83,2.84,2.84,0,0,0-2-.71h-3.12Z" transform="translate(0 -2.96)"/>
    <path d="M318.13,593.1l3.07-4.9h2l-4.05,6.34,4.14,6.45h-2l-3.15-5L315,601h-2l4.15-6.45-4.05-6.34h2Z" transform="translate(0 -2.96)"/>
    <path d="M250.34,616.94H245v5.65h-1.69V609.8h7.93v1.38H245v4.38h5.37Z" transform="translate(0 -2.96)"/>
    <path d="M262.24,609.8v8.7a4.11,4.11,0,0,1-1.14,3,4.59,4.59,0,0,1-3.07,1.29l-.44,0a4.82,4.82,0,0,1-3.35-1.13,4.07,4.07,0,0,1-1.27-3.12V609.8h1.67v8.66a2.68,2.68,0,0,0,2.95,2.93,3,3,0,0,0,2.19-.76,2.92,2.92,0,0,0,.76-2.16V609.8Z" transform="translate(0 -2.96)"/>
    <path d="M274.73,622.59H273l-6.44-9.86v9.86h-1.7V609.8h1.7l6.46,9.9v-9.9h1.67Z" transform="translate(0 -2.96)"/>
    <path d="M287.14,618.53a4.68,4.68,0,0,1-1.49,3.14,5,5,0,0,1-3.36,1.1,4.49,4.49,0,0,1-3.63-1.63,6.53,6.53,0,0,1-1.37-4.35v-1.23a7.17,7.17,0,0,1,.64-3.13,4.72,4.72,0,0,1,1.8-2.08,5,5,0,0,1,2.71-.73,4.62,4.62,0,0,1,3.27,1.14,4.75,4.75,0,0,1,1.43,3.15h-1.69a3.7,3.7,0,0,0-1-2.22,2.87,2.87,0,0,0-2.05-.69,3,3,0,0,0-2.53,1.2,5.44,5.44,0,0,0-.92,3.4v1.24a5.66,5.66,0,0,0,.87,3.32,2.81,2.81,0,0,0,2.43,1.23,3.22,3.22,0,0,0,2.16-.64,3.55,3.55,0,0,0,1-2.22Z" transform="translate(0 -2.96)"/>
    <path d="M298,611.18h-4.11v11.41h-1.68V611.18h-4.1V609.8H298Z" transform="translate(0 -2.96)"/>
    <path d="M301.74,622.59h-1.68V609.8h1.68Z" transform="translate(0 -2.96)"/>
    <path d="M314.67,616.61a7.93,7.93,0,0,1-.63,3.28,4.76,4.76,0,0,1-1.79,2.14,5,5,0,0,1-2.71.74,4.78,4.78,0,0,1-4.5-2.86,7.6,7.6,0,0,1-.66-3.19v-.92a7.77,7.77,0,0,1,.64-3.26,4.75,4.75,0,0,1,4.5-2.92,5,5,0,0,1,2.71.74,4.84,4.84,0,0,1,1.81,2.16,8,8,0,0,1,.63,3.28Zm-1.68-.83a5.73,5.73,0,0,0-.91-3.49,3.25,3.25,0,0,0-5.08,0,5.65,5.65,0,0,0-.94,3.38v.94a5.74,5.74,0,0,0,.93,3.47,3.25,3.25,0,0,0,5.08.07,5.75,5.75,0,0,0,.92-3.42Z" transform="translate(0 -2.96)"/>
    <path d="M327,622.59h-1.7l-6.44-9.86v9.86h-1.7V609.8h1.7l6.46,9.9v-9.9H327Z" transform="translate(0 -2.96)"/>
    <path d="M338.39,616.22l3.34-6.42h1.92l-4.41,8v4.77h-1.69v-4.77l-4.41-8h1.93Z" transform="translate(0 -2.96)"/>
  </g>
  <g>
    <line x1="229.96" y1="144.08" x2="242.67" y2="162.22" style="fill: none;stroke: #7fffe7;stroke-miterlimit: 10"/>
    <path d="M246.13,170.13a30,30,0,0,0-8.8-4.27l4.89-1.32,2.9-4.14A30.59,30.59,0,0,0,246.13,170.13Z" transform="translate(0 -2.96)" style="fill: #7fffe7"/>
  </g>
  <g>
    <line x1="140.72" y1="144.08" x2="128.01" y2="162.22" style="fill: none;stroke: #7fffe7;stroke-miterlimit: 10"/>
    <path d="M124.55,170.13a30,30,0,0,0,1-9.73l2.91,4.14,4.88,1.32A30.1,30.1,0,0,0,124.55,170.13Z" transform="translate(0 -2.96)" style="fill: #7fffe7"/>
  </g>
  <g>
    <line x1="292.8" y1="272.51" x2="292.8" y2="283.16" style="fill: none;stroke: #7fffe7;stroke-miterlimit: 10"/>
    <path d="M292.8,292.16a30.12,30.12,0,0,0-4.75-8.54l4.75,1.72,4.76-1.72A30.15,30.15,0,0,0,292.8,292.16Z" transform="translate(0 -2.96)" style="fill: #7fffe7"/>
  </g>
  <g>
    <line x1="292.8" y1="395.77" x2="292.8" y2="406.42" style="fill: none;stroke: #7fffe7;stroke-miterlimit: 10"/>
    <path d="M292.8,415.42a30.12,30.12,0,0,0-4.75-8.54l4.75,1.72,4.76-1.72A30.15,30.15,0,0,0,292.8,415.42Z" transform="translate(0 -2.96)" style="fill: #7fffe7"/>
  </g>
  <g>
    <line x1="292.8" y1="517.97" x2="292.8" y2="528.62" style="fill: none;stroke: #7fffe7;stroke-miterlimit: 10"/>
    <path d="M292.8,537.62a30.31,30.31,0,0,0-4.75-8.55l4.75,1.72,4.76-1.72A30.34,30.34,0,0,0,292.8,537.62Z" transform="translate(0 -2.96)" style="fill: #7fffe7"/>
  </g>
  <g>
    <path d="M110.87,13v5.81h-2.72V3.18h6a7.24,7.24,0,0,1,2.42.37,5.18,5.18,0,0,1,1.79,1,4.4,4.4,0,0,1,1.11,1.58,5.14,5.14,0,0,1,.38,2,5.26,5.26,0,0,1-.38,2,4.06,4.06,0,0,1-1.11,1.53,5.2,5.2,0,0,1-1.79,1,8.14,8.14,0,0,1-2.42.33Zm0-2.18h3.27a4.17,4.17,0,0,0,1.35-.2,2.39,2.39,0,0,0,.92-.54,2.17,2.17,0,0,0,.54-.85,3.29,3.29,0,0,0,.16-1.07,3.39,3.39,0,0,0-.16-1,2.48,2.48,0,0,0-.54-.89,2.55,2.55,0,0,0-.92-.63,3.67,3.67,0,0,0-1.35-.23h-3.27Z" transform="translate(0 -2.96)" style="fill: #7fffe7"/>
    <path d="M128,12.79h-3v6h-2.71V3.18h5.5a8.34,8.34,0,0,1,2.39.31,4.82,4.82,0,0,1,1.78.9A3.86,3.86,0,0,1,133,5.87a5.12,5.12,0,0,1,.38,2,4.41,4.41,0,0,1-.76,2.62,4.83,4.83,0,0,1-2.11,1.63L134,18.68v.14H131.1Zm-3-2.18h2.8a3.77,3.77,0,0,0,1.27-.19,2.6,2.6,0,0,0,.92-.54,2.38,2.38,0,0,0,.55-.81A3,3,0,0,0,130.65,8a3.41,3.41,0,0,0-.17-1.09A2.19,2.19,0,0,0,130,6.1a2.23,2.23,0,0,0-.91-.54,4,4,0,0,0-1.32-.19h-2.79Z" transform="translate(0 -2.96)" style="fill: #7fffe7"/>
    <path d="M148.43,11.41A10.14,10.14,0,0,1,148,14.6a6.86,6.86,0,0,1-1.32,2.4,5.66,5.66,0,0,1-2,1.51,6.82,6.82,0,0,1-5.27,0A5.92,5.92,0,0,1,137.27,17a6.9,6.9,0,0,1-1.34-2.4,9.85,9.85,0,0,1-.48-3.19v-.8a10,10,0,0,1,.48-3.2A7.14,7.14,0,0,1,137.26,5a5.7,5.7,0,0,1,2.05-1.52A6.44,6.44,0,0,1,141.94,3a6.57,6.57,0,0,1,2.65.53,5.78,5.78,0,0,1,2,1.52A7,7,0,0,1,148,7.41a10.25,10.25,0,0,1,.47,3.2Zm-2.72-.82a10,10,0,0,0-.25-2.31,5,5,0,0,0-.74-1.68,3.08,3.08,0,0,0-1.19-1,3.57,3.57,0,0,0-1.59-.35,3.49,3.49,0,0,0-1.57.35,3.16,3.16,0,0,0-1.19,1,5.21,5.21,0,0,0-.75,1.68,9,9,0,0,0-.26,2.31v.82a9,9,0,0,0,.26,2.32,5.07,5.07,0,0,0,.76,1.69,3.19,3.19,0,0,0,1.2,1,3.49,3.49,0,0,0,1.57.35,3.22,3.22,0,0,0,2.78-1.37,7,7,0,0,0,1-4Z" transform="translate(0 -2.96)" style="fill: #7fffe7"/>
    <path d="M153.85,13v5.81h-2.72V3.18h6a7.24,7.24,0,0,1,2.42.37,5.18,5.18,0,0,1,1.79,1,4.53,4.53,0,0,1,1.11,1.58,5.14,5.14,0,0,1,.38,2,5.26,5.26,0,0,1-.38,2,4.17,4.17,0,0,1-1.11,1.53,5.2,5.2,0,0,1-1.79,1,8.14,8.14,0,0,1-2.42.33Zm0-2.18h3.27a4.07,4.07,0,0,0,1.34-.2,2.36,2.36,0,0,0,.93-.54,2.17,2.17,0,0,0,.54-.85,3.29,3.29,0,0,0,.16-1.07,3.39,3.39,0,0,0-.16-1,2.48,2.48,0,0,0-.54-.89,2.51,2.51,0,0,0-.93-.63,3.57,3.57,0,0,0-1.34-.23h-3.27Z" transform="translate(0 -2.96)" style="fill: #7fffe7"/>
    <path d="M170.67,18.82V3.18h4.62a7.6,7.6,0,0,1,2.87.53,6.43,6.43,0,0,1,2.22,1.49,6.83,6.83,0,0,1,1.44,2.35,8.56,8.56,0,0,1,.52,3.07v.78a8.69,8.69,0,0,1-.51,3.06,6.48,6.48,0,0,1-1.45,2.34,6.32,6.32,0,0,1-2.27,1.49,7.75,7.75,0,0,1-3,.53Zm2.72-13.45V16.65h1.77a4.92,4.92,0,0,0,2-.36,3.52,3.52,0,0,0,1.39-1,4.58,4.58,0,0,0,.83-1.65,7.88,7.88,0,0,0,.28-2.2v-.8a6,6,0,0,0-1.11-3.89,3.91,3.91,0,0,0-3.21-1.34Z" transform="translate(0 -2.96)" style="fill: #7fffe7"/>
    <path d="M190.79,12.79h-3v6h-2.71V3.18h5.5a8.34,8.34,0,0,1,2.39.31,4.82,4.82,0,0,1,1.78.9,3.86,3.86,0,0,1,1.1,1.48,5.12,5.12,0,0,1,.38,2,4.41,4.41,0,0,1-.76,2.62,4.83,4.83,0,0,1-2.11,1.63l3.51,6.52v.14h-2.91Zm-3-2.18h2.8a3.87,3.87,0,0,0,1.28-.19,2.65,2.65,0,0,0,.91-.54,2.38,2.38,0,0,0,.55-.81A3,3,0,0,0,193.48,8a3.41,3.41,0,0,0-.17-1.09,2.19,2.19,0,0,0-.53-.83,2.23,2.23,0,0,0-.91-.54,4,4,0,0,0-1.32-.19h-2.79Z" transform="translate(0 -2.96)" style="fill: #7fffe7"/>
    <path d="M201.64,18.82h-2.7V3.18h2.7Z" transform="translate(0 -2.96)" style="fill: #7fffe7"/>
    <path d="M207.7,16.65h7.1v2.17H205V3.18h2.72Z" transform="translate(0 -2.96)" style="fill: #7fffe7"/>
    <path d="M219.6,16.65h7.1v2.17h-9.81V3.18h2.71Z" transform="translate(0 -2.96)" style="fill: #7fffe7"/>
    <path d="M231.66,18.82H229V3.18h2.71Z" transform="translate(0 -2.96)" style="fill: #7fffe7"/>
    <path d="M247.4,18.82h-2.71l-7-11.1v11.1H235V3.18h2.72l7,11.14V3.18h2.69Z" transform="translate(0 -2.96)" style="fill: #7fffe7"/>
    <path d="M262.6,16.79a5.39,5.39,0,0,1-.68.71,4.57,4.57,0,0,1-1.14.73,7.47,7.47,0,0,1-1.66.57,9.61,9.61,0,0,1-2.28.24,7,7,0,0,1-2.71-.51A5.88,5.88,0,0,1,252,17.07a6.87,6.87,0,0,1-1.37-2.35,9.81,9.81,0,0,1-.48-3.19v-1a10.43,10.43,0,0,1,.44-3.19,6.71,6.71,0,0,1,1.26-2.37,5.49,5.49,0,0,1,2-1.47A6.86,6.86,0,0,1,256.6,3a7.49,7.49,0,0,1,2.49.38,5.12,5.12,0,0,1,1.8,1A5,5,0,0,1,262,6a7.09,7.09,0,0,1,.55,2h-2.66a4.48,4.48,0,0,0-.32-1.13A2.79,2.79,0,0,0,259,6a2.69,2.69,0,0,0-1-.59,4,4,0,0,0-1.37-.21A3.62,3.62,0,0,0,255,5.5a3.07,3.07,0,0,0-1.17,1,5,5,0,0,0-.7,1.67,10.34,10.34,0,0,0-.23,2.26v1.06a8.67,8.67,0,0,0,.28,2.28,5.09,5.09,0,0,0,.8,1.67,3.51,3.51,0,0,0,1.27,1,3.85,3.85,0,0,0,1.69.36,6.73,6.73,0,0,0,1.2-.1,3.88,3.88,0,0,0,.84-.23,2.51,2.51,0,0,0,.57-.3,4,4,0,0,0,.36-.32V12.86h-3.22V10.8h5.92Z" transform="translate(0 -2.96)" style="fill: #7fffe7"/>
  </g>
</svg>
